<svg xmlns="http://www.w3.org/2000/svg" id="Capa_1" enable-background="new 0 0 511.999 511.999" height="512" viewBox="0 0 511.999 511.999" width="512"><g><path d="m503.29 197.543-188.834-188.834c-11.612-11.612-30.439-11.612-42.051 0-4.707 4.706-228.735 228.734-232.076 232.076-11.612 11.612-11.612 30.439 0 42.051l62.719 62.719c9.425 9.425 8.328 25.01-2.325 33.022l-88.93 66.883c-14.363 10.803-15.843 31.817-3.134 44.525l13.356 13.356c12.708 12.708 33.722 11.229 44.525-3.135l66.883-88.93c8.012-10.653 23.597-11.75 33.022-2.325l62.719 62.719c11.612 11.612 30.439 11.612 42.051 0l232.075-232.075c11.612-11.613 11.612-30.44 0-42.052z" fill="#ce775f"/><g><g fill="#c0694e"><path d="m61.633 304.14c-9.045-11.664-8.221-28.506 2.488-39.215 3.341-3.341 228.399-228.4 233.106-233.106 9.549-9.549 23.973-11.238 35.255-5.083l-18.026-18.027c-11.612-11.612-30.439-11.612-42.051 0-4.707 4.706-228.735 228.734-232.076 232.076-11.612 11.612-11.612 30.439 0 42.051z"/><path d="m35.585 469.6 88.931-66.883c10.653-8.012 11.75-23.597 2.325-33.022l-21.667-21.667c7.045 9.494 5.317 23.204-4.45 30.549l-88.931 66.883c-14.363 10.803-15.843 31.817-3.134 44.525l13.356 13.356c1.716 1.716 3.587 3.164 5.559 4.366-7.065-12.542-4.133-28.974 8.011-38.107z"/></g></g><circle cx="270.289" cy="241.71" fill="#f4dd45" r="166.559"/><path d="m229.426 359.485c-65.045-65.045-65.045-170.504 0-235.549 22.67-22.67 50.252-37.429 79.319-44.297-54.331-12.837-113.856 1.922-156.231 44.297-65.045 65.045-65.045 170.504 0 235.549 42.375 42.375 101.9 57.134 156.231 44.297-29.067-6.868-56.649-21.627-79.319-44.297z" fill="#fcc101"/><circle cx="270.289" cy="241.71" fill="#fcc101" r="129.904"/><path d="m238.109 115.843c-21.865 5.568-42.565 16.899-59.676 34.011-50.731 50.731-50.731 132.982 0 183.713 17.111 17.112 37.811 28.442 59.676 34.011-2.966-2.575-5.862-5.272-8.682-8.092-65.045-65.045-65.045-170.504 0-235.549 2.819-2.821 5.716-5.518 8.682-8.094z" fill="#efac08"/><path d="m286.844 254.145 142.181 38.097c1.563-4.924 2.897-9.905 3.991-14.928l-142.174-38.095c-2.501-.67-3.339-3.797-1.508-5.628l104.062-104.061c-1.728-1.894-3.501-3.762-5.333-5.594-1.831-1.832-3.7-3.604-5.594-5.333l-104.061 104.06c-1.831 1.831-4.958.993-5.628-1.508l-38.095-142.173c-5.023 1.094-10.005 2.428-14.929 3.992l38.098 142.182c.67 2.501-1.619 4.79-4.12 4.12l-142.182-38.097c-1.563 4.924-2.897 9.905-3.991 14.928l142.174 38.095c2.501.67 3.339 3.797 1.508 5.628l-104.062 104.061c1.728 1.894 3.501 3.762 5.333 5.594 1.831 1.832 3.7 3.604 5.594 5.333l104.061-104.061c1.831-1.831 4.958-.993 5.628 1.508l38.095 142.173c5.023-1.094 10.004-2.429 14.929-3.992l-38.098-142.182c-.669-2.501 1.62-4.789 4.121-4.119z" fill="#f2ab08"/><g fill="#f87c68"><circle cx="353.48" cy="217.97" r="16.083"/><circle cx="294.029" cy="158.519" r="16.083"/><circle cx="248.598" cy="322.851" r="16.083"/><circle cx="211.514" cy="179.93" r="16.083"/><circle cx="331.114" cy="301.44" r="16.083"/><circle cx="189.148" cy="263.401" r="16.083"/></g><path d="m358.19 229.342c-6.281-6.281-6.281-16.464 0-22.745 1.017-1.016 2.143-1.851 3.331-2.538-6.152-3.56-14.15-2.726-19.414 2.538-6.281 6.281-6.281 16.464 0 22.745 5.264 5.264 13.262 6.098 19.414 2.538-1.188-.687-2.314-1.521-3.331-2.538z" fill="#ec625e"/><path d="m298.74 169.892c-6.281-6.281-6.281-16.464 0-22.745 1.017-1.017 2.143-1.851 3.331-2.538-6.152-3.56-14.15-2.726-19.414 2.538-6.281 6.281-6.281 16.464 0 22.745 5.264 5.264 13.262 6.098 19.414 2.538-1.188-.688-2.315-1.522-3.331-2.538z" fill="#ec625e"/><path d="m253.309 334.224c-6.281-6.281-6.281-16.464 0-22.745 1.017-1.017 2.143-1.851 3.331-2.538-6.151-3.56-14.149-2.726-19.414 2.538-6.281 6.281-6.281 16.464 0 22.745 5.264 5.264 13.262 6.099 19.414 2.538-1.188-.688-2.314-1.522-3.331-2.538z" fill="#ec625e"/><path d="m212.062 184.093c-1.927-7.191 1.349-14.534 7.508-18.082-3.567-2.065-7.923-2.767-12.218-1.616-8.58 2.299-13.671 11.118-11.373 19.698 2.299 8.58 11.118 13.671 19.698 11.372 1.389-.372 2.675-.931 3.864-1.616-3.558-2.059-6.331-5.472-7.479-9.756z" fill="#ec625e"/><path d="m331.662 305.603c-1.927-7.191 1.349-14.534 7.508-18.082-3.567-2.065-7.923-2.767-12.218-1.616-8.58 2.299-13.671 11.118-11.373 19.698 2.299 8.58 11.118 13.671 19.698 11.372 1.389-.372 2.675-.931 3.865-1.616-3.559-2.059-6.332-5.472-7.48-9.756z" fill="#ec625e"/><path d="m193.858 274.773c-6.281-6.281-6.281-16.464 0-22.745 1.017-1.017 2.143-1.851 3.331-2.538-6.152-3.56-14.15-2.726-19.414 2.538-6.281 6.281-6.281 16.464 0 22.745 5.264 5.264 13.262 6.098 19.414 2.538-1.188-.687-2.314-1.521-3.331-2.538z" fill="#ec625e"/><g><g><path d="m301.715 286.052c-.89 0-1.795-.155-2.679-.482-4.002-1.48-6.047-5.924-4.567-9.926l1.862-5.035c1.48-4.003 5.922-6.048 9.927-4.567 4.002 1.48 6.047 5.924 4.567 9.926l-1.862 5.035c-1.153 3.118-4.106 5.049-7.248 5.049z" fill="#64d465"/></g></g><g><g><path d="m237.213 218.377c-.89 0-1.794-.155-2.678-.481-4.003-1.48-6.047-5.924-4.568-9.927l1.862-5.036c1.479-4.002 5.922-6.046 9.926-4.568 4.003 1.48 6.047 5.924 4.568 9.927l-1.862 5.036c-1.153 3.118-4.107 5.049-7.248 5.049z" fill="#64d465"/></g></g><g><g><path d="m317.545 240.749c-2.218 0-4.42-.951-5.948-2.791l-3.43-4.131c-2.726-3.283-2.275-8.154 1.008-10.88 3.284-2.724 8.153-2.275 10.88 1.009l3.43 4.131c2.726 3.283 2.275 8.154-1.008 10.88-1.442 1.198-3.192 1.782-4.932 1.782z" fill="#64d465"/></g></g><g><g><path d="m226.685 262.771c-2.218 0-4.42-.951-5.948-2.791l-3.43-4.131c-2.726-3.283-2.275-8.154 1.008-10.88 3.283-2.725 8.153-2.275 10.88 1.009l3.43 4.131c2.726 3.283 2.275 8.154-1.008 10.88-1.443 1.198-3.193 1.782-4.932 1.782z" fill="#64d465"/></g></g><g><g><path d="m280.92 205.299c-3.695 0-6.962-2.659-7.607-6.425-.72-4.206 2.107-8.199 6.313-8.919l5.292-.905c4.203-.721 8.199 2.106 8.919 6.313.72 4.206-2.107 8.199-6.313 8.919l-5.292.905c-.441.076-.879.112-1.312.112z" fill="#64d465"/></g></g><g><g><path d="m254.562 294.998c-3.695 0-6.962-2.659-7.607-6.425-.72-4.206 2.107-8.199 6.313-8.919l5.292-.905c4.206-.721 8.199 2.107 8.919 6.313s-2.107 8.199-6.313 8.919l-5.292.905c-.441.076-.88.112-1.312.112z" fill="#64d465"/></g></g></g></svg>