<?xml version="1.0" standalone="yes"?>

<svg version="1.1" viewBox="0.0 0.0 800.0 600.0" fill="none" stroke="none" stroke-linecap="square" stroke-miterlimit="10" xmlns="http://www.w3.org/2000/svg" xmlns:xlink="http://www.w3.org/1999/xlink"><clipPath id="p.0"><path d="m0 0l800.0 0l0 600.0l-800.0 0l0 -600.0z" clip-rule="nonzero"></path></clipPath><g clip-path="url(#p.0)"><path fill="#000000" fill-opacity="0.0" d="m0 0l800.0 0l0 600.0l-800.0 0z" fill-rule="evenodd"></path><path fill="#f1c232" d="m185.46011 300.0l0 0c0 -149.3952 122.90665 -270.50394 274.51968 -270.50394l0 0c72.80713 0 142.63232 28.49944 194.11475 79.22877c51.48242 50.729332 80.40497 119.53306 80.40497 191.27518l0 0c0 149.3952 -122.90668 270.50397 -274.5197 270.50397l0 0c-151.61304 0 -274.51968 -121.108765 -274.51968 -270.50397z" fill-rule="evenodd"></path><path fill="#e69138" fill-opacity="0.8577" d="m125.48006 300.0l0 0c0 -149.3952 122.90665 -270.50394 274.5197 -270.50394l0 0c72.80713 0 142.63226 28.49944 194.11475 79.22877c51.48242 50.729332 80.40491 119.53306 80.40491 191.27518l0 0c0 149.3952 -122.90662 270.50397 -274.51965 270.50397l0 0c-151.61305 0 -274.5197 -121.108765 -274.5197 -270.50397z" fill-rule="evenodd"></path><path fill="#cd3030" d="m65.5 300.0l0 0c0 -149.3952 122.90665 -270.50394 274.51968 -270.50394l0 0c72.80716 0 142.6323 28.49944 194.11472 79.22877c51.48242 50.729332 80.40497 119.53306 80.40497 191.27518l0 0c0 149.3952 -122.90665 270.50397 -274.51968 270.50397l0 0c-151.61304 0 -274.51968 -121.108765 -274.51968 -270.50397z" fill-rule="evenodd"></path><path fill="#000000" fill-opacity="0.0" d="m75.89024 143.7765l528.22046 0l0 312.44092l-528.22046 0z" fill-rule="evenodd"></path><path fill="#e8e8e8" d="m151.383 175.29213l43.671875 0l15.53125 139.46873l-0.578125 28.390625l-3.25 -0.109375l0.875 -32.484375l24.828125 -135.26561l36.234375 0l23.78125 135.32811l0.46875 32.3125l-3.390625 0.09375l-0.578125 -28.234375l14.1875 -139.49998l43.8125 0l-32.671875 233.48436l-43.734375 0l-19.171875 -111.625l-2.859375 -44.343735l2.609375 -0.015625l-2.71875 44.374985l-20.109375 111.609375l-43.3125 0l-33.625 -233.48436zm192.57062 0l43.671875 0l15.53125 139.46873l-0.578125 28.390625l-3.25 -0.109375l0.875 -32.484375l24.828125 -135.26561l36.234375 0l23.78125 135.32811l0.46875 32.3125l-3.390625 0.09375l-0.578125 -28.234375l14.1875 -139.49998l43.8125 0l-32.671875 233.48436l-43.734375 0l-19.171875 -111.625l-2.859375 -44.343735l2.609375 -0.015625l-2.71875 44.374985l-20.109375 111.609375l-43.3125 0l-33.625 -233.48436z" fill-rule="nonzero"></path></g></svg>

